<?xml version="1.0" encoding="UTF-8" standalone="no"?><svg xmlns="http://www.w3.org/2000/svg" xmlns:xlink="http://www.w3.org/1999/xlink" contentScriptType="application/ecmascript" contentStyleType="text/css" height="150px" preserveAspectRatio="none" style="width:250px;height:150px;" version="1.1" viewBox="0 0 250 150" width="250px" zoomAndPan="magnify"><defs/><g><line style="stroke: #383838; stroke-width: 1.0; stroke-dasharray: 5.0,5.0;" x1="33" x2="33" y1="34.4883" y2="110.4883"/><line style="stroke: #383838; stroke-width: 1.0; stroke-dasharray: 5.0,5.0;" x1="109" x2="109" y1="34.4883" y2="110.4883"/><line style="stroke: #383838; stroke-width: 1.0; stroke-dasharray: 5.0,5.0;" x1="199" x2="199" y1="34.4883" y2="110.4883"/><rect fill="#F8F8F8" height="30.4883" style="stroke: #383838; stroke-width: 1.5;" width="51" x="8" y="3"/><text fill="#000000" font-family="sans-serif" font-size="14" lengthAdjust="spacingAndGlyphs" textLength="37" x="15" y="23.5352">client</text><rect fill="#F8F8F8" height="30.4883" style="stroke: #383838; stroke-width: 1.5;" width="51" x="8" y="109.4883"/><text fill="#000000" font-family="sans-serif" font-size="14" lengthAdjust="spacingAndGlyphs" textLength="37" x="15" y="130.0234">client</text><rect fill="#F8F8F8" height="30.4883" style="stroke: #383838; stroke-width: 1.5;" width="81" x="69" y="3"/><text fill="#000000" font-family="sans-serif" font-size="14" lengthAdjust="spacingAndGlyphs" textLength="67" x="76" y="23.5352">front_end</text><rect fill="#F8F8F8" height="30.4883" style="stroke: #383838; stroke-width: 1.5;" width="81" x="69" y="109.4883"/><text fill="#000000" font-family="sans-serif" font-size="14" lengthAdjust="spacingAndGlyphs" textLength="67" x="76" y="130.0234">front_end</text><rect fill="#F8F8F8" height="30.4883" style="stroke: #383838; stroke-width: 1.5;" width="79" x="160" y="3"/><text fill="#000000" font-family="sans-serif" font-size="14" lengthAdjust="spacingAndGlyphs" textLength="65" x="167" y="23.5352">back_end</text><rect fill="#F8F8F8" height="30.4883" style="stroke: #383838; stroke-width: 1.5;" width="79" x="160" y="109.4883"/><text fill="#000000" font-family="sans-serif" font-size="14" lengthAdjust="spacingAndGlyphs" textLength="65" x="167" y="130.0234">back_end</text><polygon fill="#383838" points="97.5,46.4883,107.5,50.4883,97.5,54.4883,101.5,50.4883" style="stroke: #383838; stroke-width: 1.0;"/><line style="stroke: #383838; stroke-width: 1.0;" x1="33.5" x2="103.5" y1="50.4883" y2="50.4883"/><polygon fill="#383838" points="187.5,60.4883,197.5,64.4883,187.5,68.4883,191.5,64.4883" style="stroke: #383838; stroke-width: 1.0;"/><line style="stroke: #383838; stroke-width: 1.0;" x1="109.5" x2="193.5" y1="64.4883" y2="64.4883"/><polygon fill="#383838" points="120.5,74.4883,110.5,78.4883,120.5,82.4883,116.5,78.4883" style="stroke: #383838; stroke-width: 1.0;"/><line style="stroke: #383838; stroke-width: 1.0;" x1="114.5" x2="198.5" y1="78.4883" y2="78.4883"/><polygon fill="#383838" points="44.5,88.4883,34.5,92.4883,44.5,96.4883,40.5,92.4883" style="stroke: #383838; stroke-width: 1.0;"/><line style="stroke: #383838; stroke-width: 1.0;" x1="38.5" x2="108.5" y1="92.4883" y2="92.4883"/><!--
@startuml
skinparam monochrome true
skinparam shadowing false

client -> front_end
front_end -> back_end
back_end -> front_end
front_end -> client
@enduml

PlantUML version 1.2018.05(Sat May 05 22:00:17 CEST 2018)
(GPL source distribution)
Java Runtime: Java(TM) SE Runtime Environment
JVM: Java HotSpot(TM) 64-Bit Server VM
Java Version: 1.8.0_192-b12
Operating System: Mac OS X
OS Version: 10.14.6
Default Encoding: UTF-8
Language: en
Country: SE
--></g></svg>